<?xml version="1.0" standalone="no"?>
<!DOCTYPE svg PUBLIC "-//W3C//DTD SVG 20010904//EN"
 "http://www.w3.org/TR/2001/REC-SVG-20010904/DTD/svg10.dtd">
<svg version="1.0" xmlns="http://www.w3.org/2000/svg"
 width="776.000000pt" height="625.000000pt" viewBox="0 0 776.000000 625.000000"
 preserveAspectRatio="xMidYMid meet">

<g transform="translate(0.000000,625.000000) scale(0.100000,-0.100000)"
fill="#000000" stroke="none">
<path d="M2530 5368 c-498 -5 -906 -11 -908 -13 -9 -8 28 -48 314 -341 166
-170 323 -333 350 -363 27 -30 64 -60 83 -68 28 -12 187 -14 1000 -13 531 1
1045 1 1142 1 l177 -1 93 -61 c382 -251 636 -617 730 -1054 22 -99 24 -134 24
-350 0 -250 -2 -265 -55 -455 -70 -250 -198 -471 -393 -676 -228 -241 -496
-396 -833 -481 -104 -26 -120 -27 -359 -28 -225 0 -260 2 -349 23 -235 54
-460 155 -642 287 -168 123 -366 346 -463 523 -34 61 -40 67 -91 84 -30 11
-102 30 -159 43 -57 13 -105 25 -106 27 -18 21 -49 105 -55 148 -32 225 -41
313 -33 321 5 5 31 12 58 15 57 8 75 18 75 46 0 10 6 21 13 23 6 2 93 11 192
20 415 35 465 43 465 70 0 19 -22 30 -122 61 -45 14 -174 55 -285 90 -191 61
-203 67 -209 92 -3 15 -13 52 -22 82 -16 53 -19 55 -61 64 -38 8 -46 7 -57 -9
-8 -10 -14 -29 -14 -41 0 -42 -10 -54 -49 -54 -50 0 -61 10 -76 66 -29 112
-97 364 -114 426 -28 104 -66 146 -89 101 -19 -38 -68 -397 -74 -548 l-3 -60
-44 -22 c-51 -26 -63 -21 -87 35 -14 34 -14 34 -61 27 -27 -4 -54 -12 -60 -17
-9 -7 -13 -39 -13 -90 0 -98 11 -86 -239 -263 -223 -158 -228 -162 -219 -170
3 -4 116 12 250 35 133 23 272 46 308 51 l65 10 25 -31 25 -31 76 7 c57 5 77
3 86 -7 6 -8 24 -57 41 -109 33 -107 62 -169 128 -272 25 -39 42 -74 37 -78
-4 -4 -52 -27 -105 -50 -53 -23 -105 -51 -115 -62 -16 -18 -15 -22 15 -81 49
-96 135 -250 154 -277 10 -14 18 -28 18 -33 0 -15 73 -122 158 -232 224 -289
541 -537 872 -685 693 -310 1482 -264 2128 125 366 220 653 522 850 895 160
303 242 608 268 995 7 103 -6 277 -32 445 -80 517 -353 1010 -749 1357 -140
122 -323 247 -470 320 -120 60 -304 140 -353 153 -246 65 -552 73 -2052 58z"/>
<path d="M3268 4423 c-481 -2 -738 -7 -738 -13 0 -9 117 -131 512 -537 l109
-111 82 -6 c45 -3 404 -8 797 -11 393 -3 804 -8 913 -11 140 -5 197 -3 197 4
0 21 -91 165 -158 251 -116 149 -266 283 -382 341 -30 15 -91 43 -135 61 l-80
33 -190 1 c-104 0 -522 0 -927 -2z"/>
<path d="M3320 3592 c1 -4 114 -123 253 -265 l252 -257 738 0 738 0 -4 88 c-6
149 -59 396 -90 419 -14 12 -1887 26 -1887 15z"/>
</g>
</svg>
